{"title":"Me Mamu &amp; 7 2013 WEBRip H.264 AAC MP4 (IcTv) - Hindi","uid":8407749,"size":495782738,"categoryP":"video","categoryS":"movies","magnet":"?xt=urn:btih:d1b69f76cccc1f03fba03c88394f02aad7c7cc49&amp;dn=Me+Mamu+%26amp%3B+7+2013+WEBRip+H.264+AAC+MP4+%28IcTv%29+-+Hindi&amp;tr=udp%3A%2F%2Ftracker.openbittorrent.com%3A80&amp;tr=udp%3A%2F%2Fopen.demonii.com%3A1337&amp;tr=udp%3A%2F%2Ftracker.coppersurfer.tk%3A6969&amp;tr=udp%3A%2F%2Fexodus.desync.com%3A6969","seeders":1,"leechers":0,"uploader":"SJonam","files":1,"time":1366841672,"description":" &lt;a href=&quot;http://desibbrg.org/images/66952052392581364616.gif&quot; rel=&quot;nofollow&quot; target=&quot;_NEW&quot;&gt;http://desibbrg.org/images/66952052392581364616.gif&lt;/a&gt; &lt;a href=&quot;\nhttp://desibbrg.org/images/97235848952651794578.jpg&quot; rel=&quot;nofollow&quot; target=&quot;_NEW&quot;&gt;\nhttp://desibbrg.org/images/97235848952651794578.jpg&lt;/a&gt; &lt;a href=&quot;\nhttp://desibbrg.org/images/24916462662962237472.png&quot; rel=&quot;nofollow&quot; target=&quot;_NEW&quot;&gt;\nhttp://desibbrg.org/images/24916462662962237472.png&lt;/a&gt; &lt;a href=&quot;\nhttp://desibbrg.org/images/70993814096340046597.png&quot; rel=&quot;nofollow&quot; target=&quot;_NEW&quot;&gt;\nhttp://desibbrg.org/images/70993814096340046597.png&lt;/a&gt; &lt;a href=&quot;\nhttp://desibbrg.org/images/32027685584779656077.png&quot; rel=&quot;nofollow&quot; target=&quot;_NEW&quot;&gt;\nhttp://desibbrg.org/images/32027685584779656077.png&lt;/a&gt; &lt;a href=&quot;\nhttp://desibbrg.org/images/43452378809942686833.png&quot; rel=&quot;nofollow&quot; target=&quot;_NEW&quot;&gt;\nhttp://desibbrg.org/images/43452378809942686833.png&lt;/a&gt;\n\nMedia Info - \nVideo\nFormat : AVC\nFormat/Info : Advanced Video Codec\nFormat profile : &lt;a class=&quot;__cf_email__&quot; href=&quot;/cdn-cgi/l/email-protection&quot; data-cfemail=&quot;91d3f0e2f4fdf8fff4d1dda2bfa1&quot;&gt;[email&amp;#160;protected]&lt;/a&gt;&lt;script cf-hash='f9e31' type=&quot;text/javascript&quot;&gt;\n/* &lt;![CDATA[ */!function(){try{var t=&quot;currentScript&quot;in document?document.currentScript:function(){for(var t=document.getElementsByTagName(&quot;script&quot;),e=t.length;e--;)if(t[e].getAttribute(&quot;cf-hash&quot;))return t[e]}();if(t&amp;&amp;t.previousSibling){var e,r,n,i,c=t.previousSibling,a=c.getAttribute(&quot;data-cfemail&quot;);if(a){for(e=&quot;&quot;,r=parseInt(a.substr(0,2),16),n=2;a.length-n;n+=2)i=parseInt(a.substr(n,2),16)^r,e+=String.fromCharCode(i);e=document.createTextNode(e),c.parentNode.replaceChild(e,c)}}}catch(u){}}();/* ]]&gt; */&lt;/script&gt;\nFormat settings, CABAC : No\nFormat settings, ReFrames : 1 frame\nCodec ID : avc1\nCodec ID/Info : Advanced Video Coding\nDuration : 1h 52mn\nBit rate : 492 Kbps\nMaximum bit rate : 2 200 Kbps\nWidth : 640 pixels\nHeight : 360 pixels\nDisplay aspect ratio : 16:9\nFrame rate mode : Constant\nFrame rate : 25.000 fps\nColor space : YUV\nChroma subsampling : 4:2:0\nBit depth : 8 bits\nScan type : Progressive\nBits/(Pixel*Frame) : 0.085\nStream size : 394 MiB (83%)\n\nAudio\nFormat : AAC\nFormat/Info : Advanced Audio Codec\nFormat profile : LC\nCodec ID : 40\nDuration : 1h 52mn\nBit rate mode : Variable\nBit rate : 96.0 Kbps\nMaximum bit rate : 103 Kbps\nChannel(s) : 2 channels\nChannel positions : Front: L R\nSampling rate : 44.1 KHz\nCompression mode : Lossy\nStream size : 76.9 MiB (16%)\n\n\nRipper : Lottery\n\nSeeding 24x7... Extreme Seeding...\n\n\nEnjoy!\n","torrent":{"xt":"urn:btih:d1b69f76cccc1f03fba03c88394f02aad7c7cc49","amp;dn":"Me+Mamu+%26amp%3B+7+2013+WEBRip+H.264+AAC+MP4+%28IcTv%29+-+Hindi","amp;tr":["udp%3A%2F%2Ftracker.openbittorrent.com%3A80","udp%3A%2F%2Fopen.demonii.com%3A1337","udp%3A%2F%2Ftracker.coppersurfer.tk%3A6969","udp%3A%2F%2Fexodus.desync.com%3A6969"],"infoHash":"d1b69f76cccc1f03fba03c88394f02aad7c7cc49","infoHashBuffer":{"type":"Buffer","data":[209,182,159,118,204,204,31,3,251,160,60,136,57,79,2,170,215,199,204,73]},"announce":[],"urlList":[]}}